<?xml version="1.0" standalone="no"?>
<!DOCTYPE svg PUBLIC "-//W3C//DTD SVG 20010904//EN"
 "http://www.w3.org/TR/2001/REC-SVG-20010904/DTD/svg10.dtd">
<svg version="1.0" xmlns="http://www.w3.org/2000/svg"
 width="1024.000000pt" height="1024.000000pt" viewBox="0 0 1024.000000 1024.000000"
 preserveAspectRatio="xMidYMid meet">
<metadata>
Created by potrace 1.11, written by Peter Selinger 2001-2013
</metadata>
<g transform="translate(0.000000,1024.000000) scale(0.100000,-0.100000)"
fill="#000000" stroke="none">
<path d="M6462 8567 l3 -1512 1042 1 1043 0 -28 -30 c-42 -46 -125 -137 -161
-176 -18 -19 -65 -70 -104 -114 -40 -43 -88 -96 -107 -116 -19 -21 -57 -62
-84 -91 -27 -30 -95 -103 -150 -163 -56 -60 -114 -123 -129 -140 -16 -17 -50
-54 -75 -81 -26 -28 -94 -102 -152 -164 -58 -63 -110 -119 -115 -125 -6 -6
-37 -40 -70 -76 -32 -36 -108 -119 -169 -184 -61 -66 -122 -132 -136 -147 -14
-15 -63 -69 -110 -120 -47 -50 -96 -104 -110 -119 -14 -15 -50 -54 -80 -87
-30 -33 -98 -106 -150 -163 -52 -57 -123 -134 -156 -170 -34 -36 -83 -89 -110
-119 -27 -29 -62 -68 -79 -86 -111 -119 -272 -294 -354 -384 -13 -14 -51 -55
-85 -91 -34 -37 -101 -110 -151 -164 -49 -54 -103 -113 -120 -131 -33 -35 -89
-96 -245 -265 -58 -63 -126 -137 -153 -165 l-48 -50 -70 75 c-39 41 -89 95
-111 120 -22 25 -86 94 -142 154 -55 60 -109 118 -118 129 -17 19 -153 166
-274 296 -34 36 -74 80 -89 96 -71 78 -183 200 -205 224 -78 84 -237 256 -250
271 -8 9 -60 66 -116 126 -56 60 -112 121 -125 135 -37 41 -217 236 -289 314
-36 39 -112 122 -170 185 -58 63 -128 139 -156 170 -29 30 -65 69 -80 86 -16
17 -74 80 -129 139 -55 59 -108 117 -117 128 -10 11 -64 70 -120 130 -145 157
-149 160 -192 208 -22 24 -67 73 -100 109 -52 56 -251 271 -281 304 -5 6 -64
70 -129 141 -66 72 -130 142 -143 156 l-23 26 1031 -1 c677 -1 1033 2 1037 9
4 6 7 684 7 1508 l0 1498 -32 -6 c-42 -8 -337 -104 -428 -140 -349 -136 -630
-277 -930 -467 -94 -60 -314 -213 -364 -254 -9 -7 -59 -47 -111 -89 -231 -187
-499 -449 -685 -671 -147 -175 -340 -439 -432 -589 -92 -152 -90 -149 -160
-275 -240 -432 -433 -970 -528 -1469 -8 -42 -17 -85 -19 -96 -2 -11 -7 -42
-10 -70 -7 -54 -14 -96 -21 -135 -2 -14 -7 -56 -11 -95 -3 -38 -8 -79 -10 -90
-18 -91 -25 -628 -12 -840 7 -110 24 -279 34 -345 3 -19 7 -44 8 -55 2 -11 7
-40 10 -65 23 -149 83 -423 127 -577 17 -60 32 -112 33 -118 7 -28 59 -181 90
-265 139 -379 319 -733 540 -1063 149 -222 180 -266 191 -267 5 0 45 37 88 82
102 107 434 452 608 632 l136 140 3239 1 3239 2 165 -168 c91 -92 251 -257
355 -365 105 -109 218 -227 252 -262 34 -35 66 -61 72 -58 5 3 31 37 57 74 26
37 50 69 54 72 14 12 194 297 255 405 110 193 215 408 300 615 45 108 155 429
180 525 13 50 31 116 39 147 22 82 61 265 72 338 3 19 7 42 9 50 3 8 7 33 10
55 4 22 11 69 16 105 6 36 12 92 15 125 2 33 6 69 8 80 20 92 28 646 13 874
-4 69 -10 127 -11 130 -2 3 -7 44 -11 91 -3 46 -8 87 -10 90 -2 3 -6 30 -9 60
-4 30 -9 68 -12 83 -3 16 -7 38 -9 50 -40 275 -159 695 -290 1028 -200 505
-510 1018 -860 1426 -127 148 -389 415 -510 520 -542 471 -1110 797 -1770
1018 -71 24 -163 53 -203 64 l-72 20 2 -1512z"/>
<path d="M1527 1477 c89 -90 295 -272 428 -378 212 -168 384 -284 630 -427
145 -84 497 -256 590 -288 22 -8 49 -19 60 -24 54 -27 409 -148 483 -165 9 -2
67 -17 127 -33 112 -29 190 -48 235 -56 14 -3 50 -9 80 -15 158 -30 253 -44
370 -56 30 -4 71 -8 90 -10 220 -26 874 -26 1009 0 9 2 47 6 83 9 37 4 75 8
85 10 10 2 41 7 68 10 42 6 118 19 235 40 273 50 641 160 933 277 222 90 408
181 672 329 136 77 544 357 595 410 3 3 28 23 55 45 87 69 216 185 318 285
l99 96 -3651 0 -3651 0 57 -59z"/>
</g>
</svg>
